<svg width="1697" height="1752" viewBox="0 0 1697 1752" fill="none" xmlns="http://www.w3.org/2000/svg">
<path d="M1 0.499926L1696.5 0.5L1696.5 1751.5C1614 1654 1278.58 1150.99 973.5 1275.5C617 1421 0.999928 1654 0.999928 1654L1 0.499926Z" fill="url(#paint0_linear_171_395)"/>
<path d="M1133 1024.5C1385.5 951.5 1586 1190.17 1696.5 1261L1696.5 1751.5L1504 1454.5L1398.5 1346.5C1350.83 1307 1263.59 1229.6 1133 1281.5C584.5 1499.5 354.5 1562.5 0.499972 1654.5L0.499984 1382.5C41 1393.67 164.2 1391.5 415 1313.5C728.5 1216 849.119 1106.57 1133 1024.5Z" fill="white" fill-opacity="0.03"/>
<path d="M950.5 589.5C1282 458.34 1582.67 1139.17 1696.5 1471L1696.5 1752C1415 1239 1243 1249 1140 1283.5C1073.81 1305.67 382 1553.5 0.499953 1655L0.499985 916C156 937 466.5 781 950.5 589.5Z" fill="white" fill-opacity="0.04"/>
<defs>
<linearGradient id="paint0_linear_171_395" x1="1696.5" y1="876" x2="0.999962" y2="876" gradientUnits="userSpaceOnUse">
<stop stop-color="#FF6752"/>
<stop offset="1" stop-color="#FF4D34"/>
</linearGradient>
</defs>
</svg>
