<svg width="1791" height="1498" viewBox="0 0 1791 1498" fill="none" xmlns="http://www.w3.org/2000/svg">
<path d="M1791 1101.6C658.743 566.7 210.493 1259.9 0 1498V838C191.5 746 355.488 813.552 558.482 813.552C995.331 813.552 1257.46 655.253 1430.95 357.47C1610.95 79.7981 1791 0 1791 0V1101.6Z" fill="#4487FF"/>
<path d="M1791 1101.5C944 657.001 292.737 918.313 0 1163V1498C0 1498 381.515 1009 747 939.621C1216.5 850.5 1678.5 1056 1791 1101.5Z" fill="#327BFF"/>
<path d="M175 824C108.5 824 17 856.5 0 872.5V838C88 797.5 139.5 789.5 233 789.5C331.53 789.5 635.429 838.925 891.5 775C1147.57 711.075 1314 530 1374 447C1390.62 417.422 1470.08 296.161 1513.5 242.5C1626.75 102.554 1734.48 28.7049 1791 0C1712.98 85.0709 1655 136 1576.5 311C1435.96 624.297 1400.36 676.385 1289 751.5C1204.5 808.5 1114.5 840 688 852C431.469 859.218 249 824 175 824Z" fill="#5592FF"/>
</svg>
