<svg width="3506" height="1775" viewBox="0 0 3506 1775" fill="none" xmlns="http://www.w3.org/2000/svg">
<path d="M3503 0.5H0.5V1645C415.7 1761 667.5 1764.5 794.5 1764.5C1384.1 1764.5 1495.5 1619.5 1735 947.5C1789.17 795.5 2031.5 599.3 2413.5 690.5C2795.5 781.7 3299 846 3503 808V0.5Z" fill="#FF6752"/>
<path d="M836.5 1061.5C659.3 1329.9 202.667 1399.17 0 1399V1645.5C392.4 1766.7 805.833 1780.5 960 1767C1413.2 1845.4 1663.5 1268 1732 969.5C1863.6 670.7 2183.5 655 2327 684.5C3269 851.3 3502.17 832 3501 801.5C2653 795 2140 216.5 1640 292C1140 367.5 1058 726 836.5 1061.5Z" fill="white" fill-opacity="0.04"/>
<path d="M1170 1453.5C759.6 1737.1 225.5 1532.67 1 1453.5V1653C644.2 1830.2 1098 1769.17 1244.5 1716.5C1517.7 1615.3 1685.33 1172 1735 963C1856.6 689.4 2148.67 659.333 2279.5 678.5C2335.33 686.833 2516.7 717.5 2795.5 773.5C3074.3 829.5 3396 819.667 3505.5 812C3036.5 748 2803.32 595.907 2333.5 453.5C1947.5 336.5 1611.5 476 1548.5 748C1492.8 988.5 1439.5 1209 1170 1453.5Z" fill="white" fill-opacity="0.04"/>
</svg>
